<svg xmlns="http://www.w3.org/2000/svg" xmlns:xlink="http://www.w3.org/1999/xlink" width="150" zoomAndPan="magnify" viewBox="0 0 112.5 74.999997" height="100" preserveAspectRatio="xMidYMid meet" version="1.0"><defs><g/><clipPath id="3f7182e2cb"><path d="M 51 20 L 112.003906 20 L 112.003906 63 L 51 63 Z M 51 20 " clip-rule="nonzero"/></clipPath></defs><g fill="#ffe0e9" fill-opacity="1"><g transform="translate(2.746429, 56.701606)"><g><path d="M 24.578125 -40.0625 C 23.566406 -42.675781 22.632812 -44.453125 21.78125 -45.390625 C 20.9375 -46.335938 20.125 -46.972656 19.34375 -47.296875 L 19.34375 -48.1875 L 29.875 -48.1875 L 29.875 -47.296875 C 28.863281 -46.972656 28.453125 -46.335938 28.640625 -45.390625 C 28.828125 -44.453125 29.445312 -42.703125 30.5 -40.140625 L 34.21875 -31.046875 L 37.515625 -40 C 38.390625 -42.289062 38.757812 -44.019531 38.625 -45.1875 C 38.488281 -46.363281 37.84375 -47.066406 36.6875 -47.296875 L 36.6875 -48.1875 L 44.265625 -48.1875 L 44.265625 -47.296875 C 43.304688 -46.972656 42.390625 -46.328125 41.515625 -45.359375 C 40.640625 -44.398438 39.722656 -42.613281 38.765625 -40 L 34.90625 -29.46875 L 44.203125 -6.953125 L 56.171875 -40 C 57.785156 -44.351562 57.421875 -46.785156 55.078125 -47.296875 L 55.078125 -48.1875 L 62.859375 -48.1875 L 62.859375 -47.296875 C 61.890625 -46.972656 60.96875 -46.328125 60.09375 -45.359375 C 59.226562 -44.398438 58.3125 -42.613281 57.34375 -40 L 42.953125 0 L 41.03125 0 L 31.46875 -23.34375 L 21.96875 0 L 20.03125 0 L 4.8125 -40 C 3.800781 -42.65625 2.894531 -44.453125 2.09375 -45.390625 C 1.289062 -46.335938 0.5 -46.972656 -0.28125 -47.296875 L -0.28125 -48.1875 L 10.390625 -48.1875 L 10.390625 -47.296875 C 9.335938 -46.972656 8.878906 -46.335938 9.015625 -45.390625 C 9.148438 -44.453125 9.722656 -42.65625 10.734375 -40 L 23.46875 -6.8125 L 30.84375 -24.859375 Z M 24.578125 -40.0625 "/></g></g></g><g fill="#ffe0e9" fill-opacity="1"><g transform="translate(65.190172, 56.701606)"><g><path d="M 3.515625 0 L 3.515625 -0.890625 C 4.566406 -1.210938 5.285156 -1.898438 5.671875 -2.953125 C 6.066406 -4.015625 6.265625 -5.945312 6.265625 -8.75 L 6.265625 -39.453125 C 6.265625 -42.296875 6.066406 -44.234375 5.671875 -45.265625 C 5.285156 -46.296875 4.566406 -46.972656 3.515625 -47.296875 L 3.515625 -48.1875 L 14.65625 -48.1875 L 14.65625 -47.296875 C 13.601562 -46.972656 12.878906 -46.296875 12.484375 -45.265625 C 12.097656 -44.234375 11.90625 -42.296875 11.90625 -39.453125 L 11.90625 -21.96875 L 29.953125 -40.40625 C 32.109375 -42.65625 33.359375 -44.363281 33.703125 -45.53125 C 34.046875 -46.707031 33.550781 -47.390625 32.21875 -47.578125 L 32.21875 -48.1875 L 41.78125 -48.1875 L 41.78125 -47.296875 C 40.6875 -46.972656 39.40625 -46.5 37.9375 -45.875 C 36.46875 -45.257812 34.742188 -43.941406 32.765625 -41.921875 L 18.109375 -26.921875 L 19.6875 -26.984375 C 22.257812 -27.171875 24.359375 -27.046875 25.984375 -26.609375 C 27.617188 -26.171875 28.972656 -25.378906 30.046875 -24.234375 C 31.128906 -23.085938 32.140625 -21.523438 33.078125 -19.546875 C 34.015625 -17.578125 35.0625 -15.125 36.21875 -12.1875 C 37.40625 -9.25 38.390625 -6.960938 39.171875 -5.328125 C 39.953125 -3.703125 40.675781 -2.566406 41.34375 -1.921875 C 42.007812 -1.285156 42.707031 -0.96875 43.4375 -0.96875 C 43.664062 -0.96875 43.867188 -0.96875 44.046875 -0.96875 C 44.234375 -0.96875 44.421875 -0.988281 44.609375 -1.03125 L 44.609375 -0.140625 C 44.015625 0.046875 43.359375 0.171875 42.640625 0.234375 C 41.929688 0.304688 41.210938 0.34375 40.484375 0.34375 C 38.828125 0.34375 37.492188 -0.0078125 36.484375 -0.71875 C 35.472656 -1.4375 34.566406 -2.609375 33.765625 -4.234375 C 32.960938 -5.859375 32.007812 -8.003906 30.90625 -10.671875 C 29.757812 -13.472656 28.785156 -15.847656 27.984375 -17.796875 C 27.179688 -19.742188 26.363281 -21.3125 25.53125 -22.5 C 24.707031 -23.695312 23.742188 -24.5625 22.640625 -25.09375 C 21.546875 -25.625 20.125 -25.863281 18.375 -25.8125 L 17 -25.8125 L 11.90625 -20.578125 L 11.90625 -8.75 C 11.90625 -5.945312 12.097656 -4.015625 12.484375 -2.953125 C 12.878906 -1.898438 13.601562 -1.210938 14.65625 -0.890625 L 14.65625 0 Z M 3.515625 0 "/></g></g></g><g fill="#000000" fill-opacity="1"><g transform="translate(19.40494, 47.507319)"><g><path d="M 64.171875 -27 C 63.429688 -27.914062 62.625 -28.734375 61.75 -29.453125 C 60.875 -30.179688 59.941406 -30.832031 58.953125 -31.40625 C 56.441406 -32.8125 53.851562 -33.566406 51.1875 -33.671875 C 48.519531 -33.773438 45.832031 -33.351562 43.125 -32.40625 C 40.425781 -31.46875 37.757812 -30.125 35.125 -28.375 C 32.5 -26.625 29.960938 -24.59375 27.515625 -22.28125 C 25.078125 -19.976562 22.789062 -17.519531 20.65625 -14.90625 C 18.53125 -12.300781 16.601562 -9.660156 14.875 -6.984375 C 13.144531 -4.316406 11.679688 -1.742188 10.484375 0.734375 C 9.953125 1.984375 9.4375 3.234375 8.9375 4.484375 C 8.707031 5.054688 8.476562 5.628906 8.25 6.203125 C 8.207031 6.296875 8.164062 6.390625 8.125 6.484375 C 8.050781 6.703125 7.960938 6.914062 7.859375 7.125 C 7.765625 7.289062 7.632812 7.40625 7.46875 7.46875 C 7.3125 7.539062 7.144531 7.546875 6.96875 7.484375 C 6.8125 7.429688 6.726562 7.3125 6.71875 7.125 C 6.71875 6.875 6.738281 6.628906 6.78125 6.390625 C 6.925781 5.515625 7.039062 4.632812 7.125 3.75 C 7.21875 2.875 7.289062 1.992188 7.34375 1.109375 C 7.363281 0.847656 7.378906 0.582031 7.390625 0.3125 C 7.410156 0.195312 7.425781 0.078125 7.4375 -0.046875 C 7.550781 -1.578125 7.644531 -3.101562 7.71875 -4.625 C 7.757812 -5.351562 7.773438 -6.070312 7.765625 -6.78125 C 7.765625 -7.050781 7.765625 -7.328125 7.765625 -7.609375 C 7.765625 -7.617188 7.765625 -7.628906 7.765625 -7.640625 C 7.773438 -7.828125 7.757812 -8.015625 7.71875 -8.203125 C 7.695312 -8.328125 7.679688 -8.460938 7.671875 -8.609375 C 7.640625 -8.816406 7.597656 -9.019531 7.546875 -9.21875 C 7.492188 -9.414062 7.390625 -9.59375 7.234375 -9.75 C 6.992188 -9.71875 6.796875 -9.617188 6.640625 -9.453125 C 6.492188 -9.296875 6.367188 -9.117188 6.265625 -8.921875 C 6.203125 -8.816406 6.140625 -8.71875 6.078125 -8.625 C 5.378906 -7.59375 4.757812 -6.515625 4.21875 -5.390625 C 3.8125 -4.585938 3.40625 -3.785156 3 -2.984375 C 2.4375 -1.835938 1.875 -0.691406 1.3125 0.453125 C 1.113281 0.828125 0.910156 1.195312 0.703125 1.5625 C 0.597656 1.738281 0.472656 1.898438 0.328125 2.046875 C 0.046875 2.296875 -0.234375 2.367188 -0.515625 2.265625 C -0.804688 2.171875 -0.96875 1.9375 -1 1.5625 C -1.039062 0.988281 -1.03125 0.410156 -0.96875 -0.171875 C -0.894531 -1.242188 -0.789062 -2.316406 -0.65625 -3.390625 C -0.5625 -4.085938 -0.472656 -4.785156 -0.390625 -5.484375 C 0.160156 -9.765625 0.664062 -14.0625 1.125 -18.375 C 1.164062 -18.726562 1.234375 -19.085938 1.328125 -19.453125 C 1.390625 -19.710938 1.550781 -19.882812 1.8125 -19.96875 C 1.925781 -20 2.035156 -19.988281 2.140625 -19.9375 C 2.242188 -19.882812 2.296875 -19.796875 2.296875 -19.671875 C 2.296875 -19.390625 2.28125 -19.097656 2.25 -18.796875 C 2.125 -16.859375 1.941406 -14.875 1.703125 -12.84375 C 1.460938 -10.820312 1.203125 -8.796875 0.921875 -6.765625 C 0.679688 -5.015625 0.457031 -3.296875 0.25 -1.609375 C 0.238281 -1.472656 0.226562 -1.34375 0.21875 -1.21875 C 0.164062 -0.851562 0.117188 -0.488281 0.078125 -0.125 C 0.078125 -0.09375 0.0859375 -0.0546875 0.109375 -0.015625 C 0.140625 0.015625 0.164062 0.0351562 0.1875 0.046875 C 0.21875 0.046875 0.253906 0.0351562 0.296875 0.015625 C 0.347656 -0.00390625 0.378906 -0.0234375 0.390625 -0.046875 C 0.566406 -0.367188 0.742188 -0.703125 0.921875 -1.046875 C 1.242188 -1.691406 1.566406 -2.335938 1.890625 -2.984375 C 2.535156 -4.273438 3.1875 -5.566406 3.84375 -6.859375 C 4.28125 -7.710938 4.773438 -8.523438 5.328125 -9.296875 C 5.585938 -9.691406 5.894531 -10.03125 6.25 -10.3125 C 6.75 -10.675781 7.210938 -10.796875 7.640625 -10.671875 C 8.078125 -10.546875 8.398438 -10.191406 8.609375 -9.609375 C 8.785156 -9.078125 8.882812 -8.53125 8.90625 -7.96875 C 8.957031 -7.269531 8.96875 -6.570312 8.9375 -5.875 C 8.914062 -5.175781 8.878906 -4.476562 8.828125 -3.78125 C 8.816406 -3.644531 8.8125 -3.515625 8.8125 -3.390625 C 8.738281 -2.160156 8.644531 -0.910156 8.53125 0.359375 C 8.5 0.910156 8.460938 1.472656 8.421875 2.046875 C 8.578125 1.941406 8.691406 1.835938 8.765625 1.734375 C 8.835938 1.628906 8.882812 1.535156 8.90625 1.453125 C 8.914062 1.410156 8.9375 1.367188 8.96875 1.328125 C 10.050781 -1.242188 11.425781 -3.894531 13.09375 -6.625 C 14.769531 -9.351562 16.660156 -12.046875 18.765625 -14.703125 C 20.878906 -17.367188 23.15625 -19.882812 25.59375 -22.25 C 28.039062 -24.613281 30.585938 -26.71875 33.234375 -28.5625 C 35.890625 -30.40625 38.582031 -31.875 41.3125 -32.96875 C 44.039062 -34.0625 46.75 -34.671875 49.4375 -34.796875 C 52.125 -34.921875 54.734375 -34.4375 57.265625 -33.34375 C 59.804688 -32.257812 62.207031 -30.460938 64.46875 -27.953125 C 64.488281 -27.910156 64.507812 -27.867188 64.53125 -27.828125 C 64.757812 -27.640625 64.921875 -27.398438 65.015625 -27.109375 C 65.046875 -26.992188 65.03125 -26.894531 64.96875 -26.8125 C 64.90625 -26.726562 64.816406 -26.679688 64.703125 -26.671875 C 64.585938 -26.671875 64.488281 -26.695312 64.40625 -26.75 C 64.320312 -26.8125 64.242188 -26.894531 64.171875 -27 Z M 64.171875 -27 "/></g></g></g><g fill="#000000" fill-opacity="1"><g transform="translate(35.860953, 47.507319)"><g><path d="M 1.40625 -2.09375 L 1.375 -2.09375 C 0.519531 -2.101562 -0.0390625 -2.289062 -0.3125 -2.65625 C -0.582031 -3.019531 -0.566406 -3.507812 -0.265625 -4.125 C -0.0234375 -4.59375 0.28125 -5 0.65625 -5.34375 C 0.789062 -5.457031 0.925781 -5.550781 1.0625 -5.625 C 1.195312 -5.695312 1.347656 -5.734375 1.515625 -5.734375 C 1.617188 -5.753906 1.734375 -5.738281 1.859375 -5.6875 C 1.898438 -5.664062 1.941406 -5.648438 1.984375 -5.640625 C 2.085938 -5.648438 2.1875 -5.679688 2.28125 -5.734375 C 2.300781 -5.753906 2.332031 -5.769531 2.375 -5.78125 C 2.5625 -5.851562 2.765625 -5.882812 2.984375 -5.875 C 3.078125 -5.875 3.171875 -5.875 3.265625 -5.875 C 3.609375 -5.820312 3.867188 -5.675781 4.046875 -5.4375 C 4.222656 -5.195312 4.285156 -4.90625 4.234375 -4.5625 C 4.203125 -4.363281 4.140625 -4.171875 4.046875 -3.984375 C 3.367188 -2.773438 2.503906 -2.144531 1.453125 -2.09375 Z M 2.796875 -5.25 C 2.328125 -5.269531 1.910156 -5.132812 1.546875 -4.84375 C 1.191406 -4.5625 0.925781 -4.234375 0.75 -3.859375 C 0.570312 -3.492188 0.519531 -3.191406 0.59375 -2.953125 C 0.675781 -2.710938 0.925781 -2.644531 1.34375 -2.75 C 1.800781 -2.894531 2.207031 -3.160156 2.5625 -3.546875 C 2.925781 -3.929688 3.144531 -4.296875 3.21875 -4.640625 C 3.300781 -4.992188 3.160156 -5.195312 2.796875 -5.25 Z M 2.796875 -5.25 "/></g></g></g><g fill="#000000" fill-opacity="1"><g transform="translate(40.18006, 47.507319)"><g><path d="M 1.40625 -2.09375 L 1.375 -2.09375 C 0.519531 -2.101562 -0.0390625 -2.289062 -0.3125 -2.65625 C -0.582031 -3.019531 -0.566406 -3.507812 -0.265625 -4.125 C -0.0234375 -4.59375 0.28125 -5 0.65625 -5.34375 C 0.789062 -5.457031 0.925781 -5.550781 1.0625 -5.625 C 1.195312 -5.695312 1.347656 -5.734375 1.515625 -5.734375 C 1.617188 -5.753906 1.734375 -5.738281 1.859375 -5.6875 C 1.898438 -5.664062 1.941406 -5.648438 1.984375 -5.640625 C 2.085938 -5.648438 2.1875 -5.679688 2.28125 -5.734375 C 2.300781 -5.753906 2.332031 -5.769531 2.375 -5.78125 C 2.5625 -5.851562 2.765625 -5.882812 2.984375 -5.875 C 3.078125 -5.875 3.171875 -5.875 3.265625 -5.875 C 3.609375 -5.820312 3.867188 -5.675781 4.046875 -5.4375 C 4.222656 -5.195312 4.285156 -4.90625 4.234375 -4.5625 C 4.203125 -4.363281 4.140625 -4.171875 4.046875 -3.984375 C 3.367188 -2.773438 2.503906 -2.144531 1.453125 -2.09375 Z M 2.796875 -5.25 C 2.328125 -5.269531 1.910156 -5.132812 1.546875 -4.84375 C 1.191406 -4.5625 0.925781 -4.234375 0.75 -3.859375 C 0.570312 -3.492188 0.519531 -3.191406 0.59375 -2.953125 C 0.675781 -2.710938 0.925781 -2.644531 1.34375 -2.75 C 1.800781 -2.894531 2.207031 -3.160156 2.5625 -3.546875 C 2.925781 -3.929688 3.144531 -4.296875 3.21875 -4.640625 C 3.300781 -4.992188 3.160156 -5.195312 2.796875 -5.25 Z M 2.796875 -5.25 "/></g></g></g><g fill="#000000" fill-opacity="1"><g transform="translate(44.499169, 47.507319)"><g><path d="M 6.984375 -4.40625 C 7.078125 -4.28125 6.957031 -4.0625 6.625 -3.75 C 6.300781 -3.445312 5.953125 -3.1875 5.578125 -2.96875 C 5.210938 -2.757812 4.785156 -2.550781 4.296875 -2.34375 C 3.972656 -2.195312 3.628906 -2.144531 3.265625 -2.1875 C 2.898438 -2.238281 2.71875 -2.460938 2.71875 -2.859375 C 2.71875 -3.253906 2.804688 -3.644531 2.984375 -4.03125 C 3.171875 -4.425781 3.210938 -4.628906 3.109375 -4.640625 C 3.003906 -4.660156 2.789062 -4.566406 2.46875 -4.359375 C 1.625 -3.804688 0.84375 -3.171875 0.125 -2.453125 C -0.0703125 -2.222656 -0.320312 -2.097656 -0.625 -2.078125 C -0.769531 -2.078125 -0.882812 -2.125 -0.96875 -2.21875 C -1.0625 -2.3125 -1.070312 -2.414062 -1 -2.53125 C -0.488281 -3.488281 0.03125 -4.4375 0.5625 -5.375 C 0.675781 -5.5625 0.851562 -5.679688 1.09375 -5.734375 C 1.195312 -5.753906 1.289062 -5.722656 1.375 -5.640625 C 1.457031 -5.554688 1.5 -5.46875 1.5 -5.375 C 1.488281 -5.28125 1.453125 -5.164062 1.390625 -5.03125 C 1.359375 -4.957031 1.328125 -4.882812 1.296875 -4.8125 C 1.273438 -4.738281 1.265625 -4.675781 1.265625 -4.625 C 1.273438 -4.582031 1.316406 -4.570312 1.390625 -4.59375 C 1.472656 -4.644531 1.5625 -4.695312 1.65625 -4.75 C 1.875 -4.875 2.085938 -4.992188 2.296875 -5.109375 C 2.472656 -5.222656 2.660156 -5.316406 2.859375 -5.390625 C 3.066406 -5.472656 3.28125 -5.53125 3.5 -5.5625 C 3.84375 -5.582031 4.085938 -5.5 4.234375 -5.3125 C 4.390625 -5.132812 4.410156 -4.882812 4.296875 -4.5625 C 4.179688 -4.269531 4.054688 -3.984375 3.921875 -3.703125 C 3.765625 -3.429688 3.738281 -3.222656 3.84375 -3.078125 C 3.945312 -2.929688 4.4375 -3.09375 5.3125 -3.5625 L 5.984375 -3.953125 C 6.609375 -4.347656 6.941406 -4.5 6.984375 -4.40625 Z M 6.984375 -4.40625 "/></g></g></g><g fill="#000000" fill-opacity="1"><g transform="translate(50.59871, 47.507319)"><g><path d="M 7.78125 -4.734375 C 7.832031 -4.742188 7.882812 -4.738281 7.9375 -4.71875 C 8 -4.707031 8.046875 -4.679688 8.078125 -4.640625 C 8.109375 -4.578125 8.101562 -4.515625 8.0625 -4.453125 C 8.03125 -4.390625 7.976562 -4.335938 7.90625 -4.296875 C 7.375 -4.046875 6.84375 -3.78125 6.3125 -3.5 C 5.675781 -3.175781 5.039062 -2.851562 4.40625 -2.53125 C 4.3125 -2.5 4.222656 -2.457031 4.140625 -2.40625 C 3.992188 -2.320312 3.851562 -2.25 3.71875 -2.1875 C 3.394531 -2.03125 3.175781 -1.785156 3.0625 -1.453125 C 2.78125 -0.648438 2.484375 0.144531 2.171875 0.9375 C 1.773438 1.988281 1.273438 2.988281 0.671875 3.9375 C 0.335938 4.488281 -0.0625 4.972656 -0.53125 5.390625 C -1.101562 5.929688 -1.757812 6.269531 -2.5 6.40625 C -3.71875 6.65625 -4.890625 6.578125 -6.015625 6.171875 C -6.484375 6.003906 -6.882812 5.738281 -7.21875 5.375 C -7.664062 4.882812 -7.6875 4.363281 -7.28125 3.8125 C -7.09375 3.570312 -6.890625 3.351562 -6.671875 3.15625 C -6.171875 2.695312 -5.628906 2.289062 -5.046875 1.9375 C -2.953125 0.59375 -0.804688 -0.632812 1.390625 -1.75 C 1.398438 -1.75 1.40625 -1.75 1.40625 -1.75 C 1.632812 -1.875 1.859375 -2 2.078125 -2.125 C 2.117188 -2.15625 2.171875 -2.21875 2.234375 -2.3125 C 2.296875 -2.40625 2.34375 -2.5 2.375 -2.59375 C 2.40625 -2.695312 2.394531 -2.769531 2.34375 -2.8125 C 2.300781 -2.863281 2.179688 -2.84375 1.984375 -2.75 C 1.910156 -2.71875 1.835938 -2.6875 1.765625 -2.65625 C 1.597656 -2.570312 1.429688 -2.5 1.265625 -2.4375 C 0.253906 -2.195312 -0.25 -2.582031 -0.25 -3.59375 C -0.226562 -4.207031 -0.046875 -4.757812 0.296875 -5.25 C 0.640625 -5.738281 1.078125 -6.125 1.609375 -6.40625 C 2.148438 -6.6875 2.734375 -6.796875 3.359375 -6.734375 C 3.421875 -6.734375 3.484375 -6.722656 3.546875 -6.703125 C 3.722656 -6.679688 3.894531 -6.671875 4.0625 -6.671875 C 4.238281 -6.671875 4.421875 -6.707031 4.609375 -6.78125 C 4.796875 -6.851562 4.9375 -6.828125 5.03125 -6.703125 C 5.132812 -6.585938 5.15625 -6.4375 5.09375 -6.25 C 4.914062 -5.882812 4.75 -5.515625 4.59375 -5.140625 C 4.46875 -4.898438 4.351562 -4.660156 4.25 -4.421875 C 4.132812 -4.160156 4.019531 -3.894531 3.90625 -3.625 C 3.75 -3.269531 3.722656 -3.082031 3.828125 -3.0625 C 3.941406 -3.050781 4.132812 -3.113281 4.40625 -3.25 C 4.445312 -3.257812 4.488281 -3.273438 4.53125 -3.296875 C 5.019531 -3.523438 5.515625 -3.753906 6.015625 -3.984375 C 6.367188 -4.140625 6.71875 -4.300781 7.0625 -4.46875 C 7.300781 -4.570312 7.539062 -4.660156 7.78125 -4.734375 Z M 1.515625 0.015625 C 1.703125 -0.503906 1.78125 -0.84375 1.75 -1 C 1.726562 -1.164062 1.613281 -1.207031 1.40625 -1.125 C 1.207031 -1.050781 0.945312 -0.914062 0.625 -0.71875 C 0.414062 -0.582031 0.191406 -0.453125 -0.046875 -0.328125 C -1.535156 0.472656 -2.988281 1.335938 -4.40625 2.265625 C -5.019531 2.617188 -5.570312 3.054688 -6.0625 3.578125 C -6.582031 4.128906 -6.566406 4.617188 -6.015625 5.046875 C -5.691406 5.304688 -5.332031 5.488281 -4.9375 5.59375 C -4.539062 5.695312 -4.101562 5.75 -3.625 5.75 C -3.0625 5.789062 -2.539062 5.6875 -2.0625 5.4375 C -1.59375 5.195312 -1.15625 4.828125 -0.75 4.328125 C -0.507812 4.003906 -0.273438 3.671875 -0.046875 3.328125 C 0.597656 2.265625 1.117188 1.160156 1.515625 0.015625 Z M 0.9375 -3.109375 C 1.09375 -3.046875 1.3125 -3.101562 1.59375 -3.28125 C 1.882812 -3.457031 2.179688 -3.695312 2.484375 -4 C 2.796875 -4.3125 3.039062 -4.628906 3.21875 -4.953125 C 3.40625 -5.273438 3.453125 -5.550781 3.359375 -5.78125 C 3.335938 -5.84375 3.300781 -5.898438 3.25 -5.953125 C 3.15625 -6.066406 3.050781 -6.117188 2.9375 -6.109375 C 2.820312 -6.109375 2.695312 -6.085938 2.5625 -6.046875 C 2.132812 -5.878906 1.753906 -5.585938 1.421875 -5.171875 C 1.097656 -4.753906 0.878906 -4.34375 0.765625 -3.9375 C 0.660156 -3.53125 0.71875 -3.253906 0.9375 -3.109375 Z M 0.9375 -3.109375 "/></g></g></g><g clip-path="url(#3f7182e2cb)"><g fill="#000000" fill-opacity="1"><g transform="translate(57.764745, 47.507319)"><g><path d="M 24.546875 2.171875 C 24.648438 2.265625 24.695312 2.363281 24.6875 2.46875 C 24.675781 2.582031 24.644531 2.6875 24.59375 2.78125 C 24.59375 2.789062 24.59375 2.796875 24.59375 2.796875 C 24.21875 3.691406 23.648438 4.363281 22.890625 4.8125 C 22.140625 5.269531 21.226562 5.457031 20.15625 5.375 C 19.132812 5.28125 18.332031 4.925781 17.75 4.3125 C 17.164062 3.695312 16.832031 2.867188 16.75 1.828125 C 16.707031 1.328125 16.722656 0.828125 16.796875 0.328125 C 16.878906 -0.171875 16.976562 -0.671875 17.09375 -1.171875 C 17.175781 -1.484375 17.253906 -1.796875 17.328125 -2.109375 C 17.472656 -2.628906 17.597656 -3.148438 17.703125 -3.671875 C 17.859375 -4.503906 17.769531 -5.082031 17.4375 -5.40625 C 17.101562 -5.726562 16.632812 -5.898438 16.03125 -5.921875 C 15.4375 -5.941406 14.828125 -5.910156 14.203125 -5.828125 C 13.847656 -5.796875 13.523438 -5.773438 13.234375 -5.765625 C 13.117188 -5.765625 13.03125 -5.726562 12.96875 -5.65625 C 12.90625 -5.59375 12.84375 -5.519531 12.78125 -5.4375 C 12.476562 -4.882812 12.175781 -4.320312 11.875 -3.75 C 9.132812 1.414062 6.160156 6.453125 2.953125 11.359375 C 2.460938 12.109375 1.953125 12.847656 1.421875 13.578125 C 1.304688 13.753906 1.171875 13.910156 1.015625 14.046875 C 0.867188 14.179688 0.691406 14.28125 0.484375 14.34375 C 0.0976562 14.457031 -0.207031 14.429688 -0.4375 14.265625 C -0.664062 14.109375 -0.769531 13.828125 -0.75 13.421875 C -0.726562 12.941406 -0.65625 12.460938 -0.53125 11.984375 C 0.164062 9.054688 1.066406 6.550781 2.171875 4.46875 C 3.273438 2.382812 4.609375 0.503906 6.171875 -1.171875 C 7.734375 -2.859375 9.539062 -4.554688 11.59375 -6.265625 C 11.914062 -6.523438 12.171875 -6.84375 12.359375 -7.21875 C 12.628906 -7.726562 12.898438 -8.242188 13.171875 -8.765625 C 14.171875 -10.691406 15.15625 -12.617188 16.125 -14.546875 C 17.101562 -16.484375 18.019531 -18.441406 18.875 -20.421875 C 19.726562 -22.398438 20.164062 -23.878906 20.1875 -24.859375 C 20.21875 -25.835938 19.765625 -26.351562 18.828125 -26.40625 C 17.898438 -26.46875 16.4375 -26.097656 14.4375 -25.296875 C 12.46875 -24.503906 10.539062 -23.625 8.65625 -22.65625 C 6.78125 -21.6875 4.929688 -20.648438 3.109375 -19.546875 C 2.421875 -19.148438 1.578125 -18.617188 0.578125 -17.953125 C -0.421875 -17.296875 -1.410156 -16.585938 -2.390625 -15.828125 C -3.367188 -15.066406 -4.175781 -14.320312 -4.8125 -13.59375 C -5.269531 -13.039062 -5.382812 -12.660156 -5.15625 -12.453125 C -4.925781 -12.253906 -4.457031 -12.144531 -3.75 -12.125 C -3.414062 -12.101562 -2.84375 -12.097656 -2.03125 -12.109375 C -1.226562 -12.117188 -0.332031 -12.160156 0.65625 -12.234375 C 1.21875 -12.273438 1.765625 -12.316406 2.296875 -12.359375 C 3.097656 -12.429688 3.78125 -12.476562 4.34375 -12.5 C 4.914062 -12.53125 5.253906 -12.5 5.359375 -12.40625 C 5.398438 -12.3125 5.003906 -12.203125 4.171875 -12.078125 C 3.347656 -11.953125 2.328125 -11.835938 1.109375 -11.734375 C -0.0976562 -11.628906 -1.269531 -11.566406 -2.40625 -11.546875 C -3.539062 -11.523438 -4.398438 -11.566406 -4.984375 -11.671875 C -6.003906 -11.890625 -6.46875 -12.285156 -6.375 -12.859375 C -6.289062 -13.441406 -5.800781 -14.140625 -4.90625 -14.953125 C -4.007812 -15.765625 -2.867188 -16.628906 -1.484375 -17.546875 C -0.109375 -18.460938 1.367188 -19.378906 2.953125 -20.296875 C 4.535156 -21.210938 6.066406 -22.0625 7.546875 -22.84375 C 9.035156 -23.625 10.316406 -24.269531 11.390625 -24.78125 C 12.460938 -25.300781 13.1875 -25.640625 13.5625 -25.796875 C 15.101562 -26.421875 16.457031 -26.84375 17.625 -27.0625 C 18.800781 -27.28125 19.71875 -27.21875 20.375 -26.875 C 21.039062 -26.539062 21.375 -25.859375 21.375 -24.828125 C 21.382812 -23.796875 20.992188 -22.332031 20.203125 -20.4375 C 19.566406 -18.9375 18.890625 -17.453125 18.171875 -15.984375 C 17.453125 -14.515625 16.722656 -13.050781 15.984375 -11.59375 C 15.703125 -11.039062 15.410156 -10.46875 15.109375 -9.875 C 14.953125 -9.550781 14.773438 -9.207031 14.578125 -8.84375 C 14.796875 -8.894531 14.972656 -8.960938 15.109375 -9.046875 C 15.242188 -9.128906 15.363281 -9.210938 15.46875 -9.296875 C 15.519531 -9.335938 15.578125 -9.378906 15.640625 -9.421875 C 18.234375 -11.316406 21.0625 -13.222656 24.125 -15.140625 C 27.1875 -17.054688 30.40625 -18.84375 33.78125 -20.5 C 37.15625 -22.164062 40.609375 -23.546875 44.140625 -24.640625 C 47.671875 -25.742188 51.195312 -26.425781 54.71875 -26.6875 C 58.238281 -26.945312 61.675781 -26.640625 65.03125 -25.765625 C 65.0625 -25.753906 65.09375 -25.71875 65.125 -25.65625 C 65.164062 -25.601562 65.1875 -25.550781 65.1875 -25.5 C 65.1875 -25.425781 65.160156 -25.367188 65.109375 -25.328125 C 65.054688 -25.285156 64.984375 -25.265625 64.890625 -25.265625 C 64.816406 -25.242188 64.742188 -25.25 64.671875 -25.28125 C 61.878906 -26 58.984375 -26.273438 55.984375 -26.109375 C 52.992188 -25.941406 49.957031 -25.4375 46.875 -24.59375 C 43.800781 -23.757812 40.753906 -22.679688 37.734375 -21.359375 C 34.710938 -20.035156 31.785156 -18.578125 28.953125 -16.984375 C 26.128906 -15.398438 23.472656 -13.769531 20.984375 -12.09375 C 18.492188 -10.425781 16.238281 -8.820312 14.21875 -7.28125 C 14.207031 -7.269531 14.203125 -7.265625 14.203125 -7.265625 C 14.046875 -7.171875 13.894531 -7.054688 13.75 -6.921875 C 13.613281 -6.796875 13.550781 -6.6875 13.5625 -6.59375 C 13.570312 -6.5 13.734375 -6.457031 14.046875 -6.46875 C 14.140625 -6.46875 14.234375 -6.46875 14.328125 -6.46875 C 14.890625 -6.519531 15.484375 -6.535156 16.109375 -6.515625 C 16.742188 -6.492188 17.316406 -6.390625 17.828125 -6.203125 C 18.585938 -5.890625 18.96875 -5.332031 18.96875 -4.53125 C 18.945312 -4.15625 18.898438 -3.789062 18.828125 -3.4375 C 18.691406 -2.832031 18.554688 -2.234375 18.421875 -1.640625 C 18.273438 -0.992188 18.128906 -0.34375 17.984375 0.3125 C 17.816406 1.09375 17.847656 1.867188 18.078125 2.640625 C 18.285156 3.316406 18.625 3.835938 19.09375 4.203125 C 19.5625 4.578125 20.09375 4.769531 20.6875 4.78125 C 21.28125 4.800781 21.875 4.617188 22.46875 4.234375 C 22.914062 3.941406 23.273438 3.5625 23.546875 3.09375 C 23.597656 2.988281 23.648438 2.882812 23.703125 2.78125 C 23.734375 2.675781 23.773438 2.578125 23.828125 2.484375 C 23.929688 2.316406 24.050781 2.203125 24.1875 2.140625 C 24.320312 2.085938 24.441406 2.097656 24.546875 2.171875 Z M 10.25 -3.25 C 10.257812 -3.28125 10.28125 -3.3125 10.3125 -3.34375 C 10.351562 -3.4375 10.410156 -3.546875 10.484375 -3.671875 C 10.554688 -3.804688 10.613281 -3.929688 10.65625 -4.046875 C 10.695312 -4.160156 10.703125 -4.226562 10.671875 -4.25 C 10.640625 -4.28125 10.539062 -4.234375 10.375 -4.109375 C 7.738281 -2.035156 5.664062 0.285156 4.15625 2.859375 C 2.65625 5.441406 1.53125 8.40625 0.78125 11.75 C 0.707031 12.039062 0.695312 12.203125 0.75 12.234375 C 0.8125 12.265625 0.898438 12.21875 1.015625 12.09375 C 1.128906 11.976562 1.238281 11.835938 1.34375 11.671875 C 1.457031 11.515625 1.539062 11.40625 1.59375 11.34375 C 3.132812 8.957031 4.628906 6.550781 6.078125 4.125 C 7.523438 1.707031 8.914062 -0.75 10.25 -3.25 Z M 10.25 -3.25 "/></g></g></g></g><g fill="#000000" fill-opacity="1"><g transform="translate(79.103729, 47.507319)"><g><path d="M 5.015625 -3.390625 C 4.679688 -3.054688 4.285156 -2.769531 3.828125 -2.53125 C 3.378906 -2.289062 3 -2.132812 2.6875 -2.0625 C 2.382812 -1.988281 2.070312 -1.945312 1.75 -1.9375 C 1.238281 -1.90625 0.765625 -1.972656 0.328125 -2.140625 C -0.378906 -2.429688 -0.628906 -2.984375 -0.421875 -3.796875 C -0.210938 -4.492188 0.203125 -5.039062 0.828125 -5.4375 C 1.460938 -5.832031 2.113281 -6.019531 2.78125 -6 C 2.78125 -6 2.785156 -6 2.796875 -6 C 2.972656 -6.019531 3.140625 -6.007812 3.296875 -5.96875 C 3.546875 -5.875 3.707031 -5.71875 3.78125 -5.5 C 3.851562 -5.289062 3.804688 -5.0625 3.640625 -4.8125 C 3.265625 -4.238281 2.753906 -3.921875 2.109375 -3.859375 C 1.679688 -3.816406 1.265625 -3.835938 0.859375 -3.921875 C 0.785156 -3.929688 0.71875 -3.910156 0.65625 -3.859375 C 0.601562 -3.804688 0.570312 -3.738281 0.5625 -3.65625 C 0.4375 -3.15625 0.585938 -2.832031 1.015625 -2.6875 C 1.546875 -2.507812 2.097656 -2.507812 2.671875 -2.6875 C 3.328125 -2.894531 3.953125 -3.28125 4.546875 -3.84375 C 5.140625 -4.414062 5.484375 -4.679688 5.578125 -4.640625 C 5.671875 -4.609375 5.695312 -4.503906 5.65625 -4.328125 C 5.570312 -4.035156 5.359375 -3.722656 5.015625 -3.390625 Z M 1.265625 -4.8125 C 1.234375 -4.769531 1.207031 -4.722656 1.1875 -4.671875 C 1.175781 -4.617188 1.195312 -4.570312 1.25 -4.53125 C 1.457031 -4.414062 1.679688 -4.375 1.921875 -4.40625 C 2.160156 -4.4375 2.363281 -4.523438 2.53125 -4.671875 C 2.695312 -4.828125 2.769531 -5.015625 2.75 -5.234375 C 2.726562 -5.304688 2.6875 -5.351562 2.625 -5.375 C 2.5625 -5.394531 2.5 -5.398438 2.4375 -5.390625 C 2 -5.316406 1.609375 -5.125 1.265625 -4.8125 Z M 1.265625 -4.8125 "/></g></g></g><g fill="#000000" fill-opacity="1"><g transform="translate(83.872348, 47.507319)"><g><path d="M 1.40625 -2.09375 L 1.375 -2.09375 C 0.519531 -2.101562 -0.0390625 -2.289062 -0.3125 -2.65625 C -0.582031 -3.019531 -0.566406 -3.507812 -0.265625 -4.125 C -0.0234375 -4.59375 0.28125 -5 0.65625 -5.34375 C 0.789062 -5.457031 0.925781 -5.550781 1.0625 -5.625 C 1.195312 -5.695312 1.347656 -5.734375 1.515625 -5.734375 C 1.617188 -5.753906 1.734375 -5.738281 1.859375 -5.6875 C 1.898438 -5.664062 1.941406 -5.648438 1.984375 -5.640625 C 2.085938 -5.648438 2.1875 -5.679688 2.28125 -5.734375 C 2.300781 -5.753906 2.332031 -5.769531 2.375 -5.78125 C 2.5625 -5.851562 2.765625 -5.882812 2.984375 -5.875 C 3.078125 -5.875 3.171875 -5.875 3.265625 -5.875 C 3.609375 -5.820312 3.867188 -5.675781 4.046875 -5.4375 C 4.222656 -5.195312 4.285156 -4.90625 4.234375 -4.5625 C 4.203125 -4.363281 4.140625 -4.171875 4.046875 -3.984375 C 3.367188 -2.773438 2.503906 -2.144531 1.453125 -2.09375 Z M 2.796875 -5.25 C 2.328125 -5.269531 1.910156 -5.132812 1.546875 -4.84375 C 1.191406 -4.5625 0.925781 -4.234375 0.75 -3.859375 C 0.570312 -3.492188 0.519531 -3.191406 0.59375 -2.953125 C 0.675781 -2.710938 0.925781 -2.644531 1.34375 -2.75 C 1.800781 -2.894531 2.207031 -3.160156 2.5625 -3.546875 C 2.925781 -3.929688 3.144531 -4.296875 3.21875 -4.640625 C 3.300781 -4.992188 3.160156 -5.195312 2.796875 -5.25 Z M 2.796875 -5.25 "/></g></g></g><g fill="#000000" fill-opacity="1"><g transform="translate(88.191454, 47.507319)"><g><path d="M 4.265625 -4.203125 C 4.460938 -4.398438 4.625 -4.507812 4.75 -4.53125 C 4.882812 -4.550781 4.96875 -4.53125 5 -4.46875 C 5.039062 -4.40625 5.019531 -4.316406 4.9375 -4.203125 C 4.414062 -3.578125 3.832031 -3.035156 3.1875 -2.578125 C 2.550781 -2.128906 1.890625 -1.867188 1.203125 -1.796875 C 0.523438 -1.734375 0.117188 -2.109375 -0.015625 -2.921875 C -0.117188 -3.722656 0.363281 -5.359375 1.4375 -7.828125 C 2.519531 -10.304688 3.378906 -12.335938 4.015625 -13.921875 C 4.066406 -14.066406 4.144531 -14.191406 4.25 -14.296875 C 4.394531 -14.441406 4.5625 -14.472656 4.75 -14.390625 C 4.8125 -14.359375 4.875 -14.3125 4.9375 -14.25 C 5.007812 -14.1875 5.035156 -14.070312 5.015625 -13.90625 C 2.234375 -7.3125 0.882812 -3.722656 0.96875 -3.140625 C 1.0625 -2.566406 1.429688 -2.425781 2.078125 -2.71875 C 2.734375 -3.007812 3.238281 -3.304688 3.59375 -3.609375 C 3.957031 -3.910156 4.179688 -4.109375 4.265625 -4.203125 Z M 4.265625 -4.203125 "/></g></g></g><g fill="#000000" fill-opacity="1"><g transform="translate(37.066976, 66.496259)"><g><path d="M 3.59375 -2.203125 L 2.875 0 L 2.328125 0 L 1.84375 -1.5 L 1.34375 0 L 0.796875 0 L 0.0625 -2.203125 L 0.59375 -2.203125 L 1.09375 -0.65625 L 1.625 -2.203125 L 2.09375 -2.203125 L 2.59375 -0.640625 L 3.109375 -2.203125 Z M 3.59375 -2.203125 "/></g></g></g><g fill="#000000" fill-opacity="1"><g transform="translate(41.369122, 66.496259)"><g><path d="M 1.328125 0.03125 C 1.097656 0.03125 0.890625 -0.015625 0.703125 -0.109375 C 0.523438 -0.210938 0.382812 -0.347656 0.28125 -0.515625 C 0.175781 -0.691406 0.125 -0.890625 0.125 -1.109375 C 0.125 -1.328125 0.175781 -1.519531 0.28125 -1.6875 C 0.382812 -1.863281 0.523438 -2 0.703125 -2.09375 C 0.890625 -2.195312 1.097656 -2.25 1.328125 -2.25 C 1.554688 -2.25 1.757812 -2.195312 1.9375 -2.09375 C 2.125 -2 2.269531 -1.863281 2.375 -1.6875 C 2.488281 -1.519531 2.546875 -1.328125 2.546875 -1.109375 C 2.546875 -0.890625 2.488281 -0.691406 2.375 -0.515625 C 2.269531 -0.347656 2.125 -0.210938 1.9375 -0.109375 C 1.757812 -0.015625 1.554688 0.03125 1.328125 0.03125 Z M 1.328125 -0.390625 C 1.460938 -0.390625 1.582031 -0.421875 1.6875 -0.484375 C 1.789062 -0.546875 1.867188 -0.628906 1.921875 -0.734375 C 1.984375 -0.847656 2.015625 -0.972656 2.015625 -1.109375 C 2.015625 -1.242188 1.984375 -1.363281 1.921875 -1.46875 C 1.867188 -1.570312 1.789062 -1.65625 1.6875 -1.71875 C 1.582031 -1.78125 1.460938 -1.8125 1.328125 -1.8125 C 1.203125 -1.8125 1.085938 -1.78125 0.984375 -1.71875 C 0.878906 -1.65625 0.796875 -1.570312 0.734375 -1.46875 C 0.671875 -1.363281 0.640625 -1.242188 0.640625 -1.109375 C 0.640625 -0.972656 0.671875 -0.847656 0.734375 -0.734375 C 0.796875 -0.628906 0.878906 -0.546875 0.984375 -0.484375 C 1.085938 -0.421875 1.203125 -0.390625 1.328125 -0.390625 Z M 1.328125 -0.390625 "/></g></g></g><g fill="#000000" fill-opacity="1"><g transform="translate(44.664468, 66.496259)"><g><path d="M 1.328125 0.03125 C 1.097656 0.03125 0.890625 -0.015625 0.703125 -0.109375 C 0.523438 -0.210938 0.382812 -0.347656 0.28125 -0.515625 C 0.175781 -0.691406 0.125 -0.890625 0.125 -1.109375 C 0.125 -1.328125 0.175781 -1.519531 0.28125 -1.6875 C 0.382812 -1.863281 0.523438 -2 0.703125 -2.09375 C 0.890625 -2.195312 1.097656 -2.25 1.328125 -2.25 C 1.554688 -2.25 1.757812 -2.195312 1.9375 -2.09375 C 2.125 -2 2.269531 -1.863281 2.375 -1.6875 C 2.488281 -1.519531 2.546875 -1.328125 2.546875 -1.109375 C 2.546875 -0.890625 2.488281 -0.691406 2.375 -0.515625 C 2.269531 -0.347656 2.125 -0.210938 1.9375 -0.109375 C 1.757812 -0.015625 1.554688 0.03125 1.328125 0.03125 Z M 1.328125 -0.390625 C 1.460938 -0.390625 1.582031 -0.421875 1.6875 -0.484375 C 1.789062 -0.546875 1.867188 -0.628906 1.921875 -0.734375 C 1.984375 -0.847656 2.015625 -0.972656 2.015625 -1.109375 C 2.015625 -1.242188 1.984375 -1.363281 1.921875 -1.46875 C 1.867188 -1.570312 1.789062 -1.65625 1.6875 -1.71875 C 1.582031 -1.78125 1.460938 -1.8125 1.328125 -1.8125 C 1.203125 -1.8125 1.085938 -1.78125 0.984375 -1.71875 C 0.878906 -1.65625 0.796875 -1.570312 0.734375 -1.46875 C 0.671875 -1.363281 0.640625 -1.242188 0.640625 -1.109375 C 0.640625 -0.972656 0.671875 -0.847656 0.734375 -0.734375 C 0.796875 -0.628906 0.878906 -0.546875 0.984375 -0.484375 C 1.085938 -0.421875 1.203125 -0.390625 1.328125 -0.390625 Z M 1.328125 -0.390625 "/></g></g></g><g fill="#000000" fill-opacity="1"><g transform="translate(47.959814, 66.496259)"><g><path d="M 2.28125 -2.203125 L 2.28125 0 L 1.875 0 L 0.765625 -1.34375 L 0.765625 0 L 0.265625 0 L 0.265625 -2.203125 L 0.6875 -2.203125 L 1.78125 -0.875 L 1.78125 -2.203125 Z M 2.28125 -2.203125 "/></g></g></g><g fill="#000000" fill-opacity="1"><g transform="translate(51.141542, 66.496259)"><g><path d="M 1.75 -1.140625 L 2.21875 -1.140625 L 2.21875 -0.25 C 2.101562 -0.15625 1.960938 -0.0820312 1.796875 -0.03125 C 1.640625 0.0078125 1.484375 0.03125 1.328125 0.03125 C 1.097656 0.03125 0.890625 -0.015625 0.703125 -0.109375 C 0.523438 -0.203125 0.382812 -0.335938 0.28125 -0.515625 C 0.175781 -0.691406 0.125 -0.890625 0.125 -1.109375 C 0.125 -1.328125 0.175781 -1.519531 0.28125 -1.6875 C 0.382812 -1.863281 0.523438 -2 0.703125 -2.09375 C 0.890625 -2.195312 1.101562 -2.25 1.34375 -2.25 C 1.53125 -2.25 1.703125 -2.210938 1.859375 -2.140625 C 2.023438 -2.078125 2.160156 -1.984375 2.265625 -1.859375 L 1.9375 -1.5625 C 1.78125 -1.726562 1.585938 -1.8125 1.359375 -1.8125 C 1.222656 -1.8125 1.097656 -1.78125 0.984375 -1.71875 C 0.878906 -1.664062 0.796875 -1.582031 0.734375 -1.46875 C 0.671875 -1.363281 0.640625 -1.242188 0.640625 -1.109375 C 0.640625 -0.972656 0.671875 -0.847656 0.734375 -0.734375 C 0.796875 -0.628906 0.878906 -0.546875 0.984375 -0.484375 C 1.097656 -0.421875 1.222656 -0.390625 1.359375 -0.390625 C 1.503906 -0.390625 1.632812 -0.425781 1.75 -0.5 Z M 1.75 -1.140625 "/></g></g></g><g fill="#000000" fill-opacity="1"><g transform="translate(54.206493, 66.496259)"><g><path d="M 1.0625 -0.875 L 0.765625 -0.5625 L 0.765625 0 L 0.265625 0 L 0.265625 -2.203125 L 0.765625 -2.203125 L 0.765625 -1.171875 L 1.75 -2.203125 L 2.3125 -2.203125 L 1.40625 -1.21875 L 2.375 0 L 1.78125 0 Z M 1.0625 -0.875 "/></g></g></g><g fill="#000000" fill-opacity="1"><g transform="translate(57.173605, 66.496259)"><g><path d="M 1.96875 -0.40625 L 1.96875 0 L 0.265625 0 L 0.265625 -2.203125 L 1.9375 -2.203125 L 1.9375 -1.796875 L 0.765625 -1.796875 L 0.765625 -1.3125 L 1.796875 -1.3125 L 1.796875 -0.921875 L 0.765625 -0.921875 L 0.765625 -0.40625 Z M 1.96875 -0.40625 "/></g></g></g><g fill="#000000" fill-opacity="1"><g transform="translate(59.922945, 66.496259)"><g><path d="M 1.328125 0.03125 C 1.097656 0.03125 0.890625 -0.015625 0.703125 -0.109375 C 0.523438 -0.210938 0.382812 -0.347656 0.28125 -0.515625 C 0.175781 -0.691406 0.125 -0.890625 0.125 -1.109375 C 0.125 -1.328125 0.175781 -1.519531 0.28125 -1.6875 C 0.382812 -1.863281 0.523438 -2 0.703125 -2.09375 C 0.890625 -2.195312 1.097656 -2.25 1.328125 -2.25 C 1.554688 -2.25 1.757812 -2.195312 1.9375 -2.09375 C 2.125 -2 2.269531 -1.863281 2.375 -1.6875 C 2.488281 -1.519531 2.546875 -1.328125 2.546875 -1.109375 C 2.546875 -0.890625 2.488281 -0.691406 2.375 -0.515625 C 2.269531 -0.347656 2.125 -0.210938 1.9375 -0.109375 C 1.757812 -0.015625 1.554688 0.03125 1.328125 0.03125 Z M 1.328125 -0.390625 C 1.460938 -0.390625 1.582031 -0.421875 1.6875 -0.484375 C 1.789062 -0.546875 1.867188 -0.628906 1.921875 -0.734375 C 1.984375 -0.847656 2.015625 -0.972656 2.015625 -1.109375 C 2.015625 -1.242188 1.984375 -1.363281 1.921875 -1.46875 C 1.867188 -1.570312 1.789062 -1.65625 1.6875 -1.71875 C 1.582031 -1.78125 1.460938 -1.8125 1.328125 -1.8125 C 1.203125 -1.8125 1.085938 -1.78125 0.984375 -1.71875 C 0.878906 -1.65625 0.796875 -1.570312 0.734375 -1.46875 C 0.671875 -1.363281 0.640625 -1.242188 0.640625 -1.109375 C 0.640625 -0.972656 0.671875 -0.847656 0.734375 -0.734375 C 0.796875 -0.628906 0.878906 -0.546875 0.984375 -0.484375 C 1.085938 -0.421875 1.203125 -0.390625 1.328125 -0.390625 Z M 1.328125 -0.390625 "/></g></g></g><g fill="#000000" fill-opacity="1"><g transform="translate(63.218292, 66.496259)"><g><path d="M 0.265625 -2.203125 L 0.765625 -2.203125 L 0.765625 -0.421875 L 1.875 -0.421875 L 1.875 0 L 0.265625 0 Z M 0.265625 -2.203125 "/></g></g></g><g fill="#000000" fill-opacity="1"><g transform="translate(65.756175, 66.496259)"><g/></g></g><g fill="#000000" fill-opacity="1"><g transform="translate(67.280946, 66.496259)"><g><path d="M 1.0625 -0.875 L 0.765625 -0.5625 L 0.765625 0 L 0.265625 0 L 0.265625 -2.203125 L 0.765625 -2.203125 L 0.765625 -1.171875 L 1.75 -2.203125 L 2.3125 -2.203125 L 1.40625 -1.21875 L 2.375 0 L 1.78125 0 Z M 1.0625 -0.875 "/></g></g></g><g fill="#000000" fill-opacity="1"><g transform="translate(70.248058, 66.496259)"><g><path d="M 0.265625 -2.203125 L 0.765625 -2.203125 L 0.765625 0 L 0.265625 0 Z M 0.265625 -2.203125 "/></g></g></g><g fill="#000000" fill-opacity="1"><g transform="translate(71.914852, 66.496259)"><g><path d="M 2.265625 0 L 2.265625 -1.328125 L 1.625 -0.234375 L 1.390625 -0.234375 L 0.734375 -1.296875 L 0.734375 0 L 0.265625 0 L 0.265625 -2.203125 L 0.6875 -2.203125 L 1.515625 -0.84375 L 2.328125 -2.203125 L 2.75 -2.203125 L 2.75 0 Z M 2.265625 0 "/></g></g></g></svg>